HIERARCHY
ROOT Hips
{
	OFFSET 0.000000 0.000000 0.000000
	CHANNELS 6 Xposition Yposition Zposition Zrotation Yrotation Xrotation 
	JOINT LHipJoint
	{
		OFFSET 0.000000 0.000000 0.000000
		CHANNELS 3 Zrotation Yrotation Xrotation
		JOINT LeftUpLeg
		{
			OFFSET 1.363060 -1.794630 0.839290
			CHANNELS 3 Zrotation Yrotation Xrotation
			JOINT LeftLeg
			{
				OFFSET 2.448110 -6.726130 0.000000
				CHANNELS 3 Zrotation Yrotation Xrotation
				JOINT LeftFoot
				{
					OFFSET 2.562200 -7.039590 0.000000
					CHANNELS 3 Zrotation Yrotation Xrotation
					JOINT LeftToeBase
					{
						OFFSET 0.157640 -0.433110 2.322550
						CHANNELS 3 Zrotation Yrotation Xrotation
						End Site
						{
							OFFSET 0.000000 0.000000 0.000000
						}
					}
				}
			}
		}
	}
	JOINT RHipJoint
	{
		OFFSET 0.000000 0.000000 0.000000
		CHANNELS 3 Zrotation Yrotation Xrotation
		JOINT RightUpLeg
		{
			OFFSET -1.305520 -1.794630 0.839290
			CHANNELS 3 Zrotation Yrotation Xrotation
			JOINT RightLeg
			{
				OFFSET -2.542530 -6.985550 0.000000
				CHANNELS 3 Zrotation Yrotation Xrotation
				JOINT RightFoot
				{
					OFFSET -2.568260 -7.056230 0.000000
					CHANNELS 3 Zrotation Yrotation Xrotation
					JOINT RightToeBase
					{
						OFFSET -0.164730 -0.452590 2.363150
						CHANNELS 3 Zrotation Yrotation Xrotation
						End Site
						{
							OFFSET 0.000000 0.000000 0.000000
						}
					}
				}
			}
		}
	}
}
MOTION
Frames: 17
Frame Time: 0.008333
2.477258 15.587958 1.286656 1.493842 69.086502 18.275749 -12.797632 0.549577 -0.353897 0.643525 11.647866 -48.000200 3.792829 5.834396 94.230763 2.468618 13.987510 1.996050 2.015000 0.000000 -32.076300 9.182955 -1.186826 3.252468 9.266841 5.364379 -34.700712 1.973608 -2.802244 56.862819 -1.576084 4.526871 -35.717857 -0.348300 0.000001 -38.939400
2.680743 15.686556 1.291870 1.956208 68.803963 18.845954 -12.661477 0.355379 -0.256754 0.157047 11.147795 -49.044634 3.694130 5.731745 93.448557 2.511143 14.145717 2.902664 2.238300 -0.000000 -32.314300 9.207617 -1.253574 3.137839 8.598003 4.926393 -32.931764 2.110319 -2.597728 54.361422 -1.474733 4.854462 -34.973896 -0.476700 0.000000 -40.159200
2.895181 15.798255 1.296695 2.457506 68.572513 19.469212 -12.515843 0.187029 -0.131461 -0.373543 10.647797 -49.960106 3.550657 5.596868 92.325975 2.567521 14.413378 3.854276 2.500600 -0.000001 -32.598000 9.232165 -1.332102 3.052882 7.876169 4.474478 -31.027892 2.244921 -2.363632 51.512495 -1.336092 5.252745 -33.930740 -0.625000 0.000001 -41.505100
3.120787 15.922568 1.301282 2.994582 68.396181 20.147146 -12.363000 0.045792 0.025254 -0.937004 10.123974 -50.736056 3.367352 5.430276 90.858344 2.635703 14.787399 4.781987 2.794000 -0.000000 -32.886000 9.259839 -1.423567 3.002242 7.109316 4.029874 -29.002691 2.367324 -2.101943 48.328782 -1.156119 5.705499 -32.518011 -0.778200 0.000000 -43.078500
3.357524 16.058665 1.305595 3.554779 68.271919 20.871560 -12.205479 -0.068041 0.214989 -1.517052 9.558340 -51.363767 3.151429 5.233778 89.048058 2.712541 15.254153 5.621979 3.107600 0.000000 -33.129001 9.293970 -1.530387 2.989903 6.309786 3.616090 -26.877308 2.466052 -1.817194 44.832228 -0.934547 6.181904 -30.662222 -0.912400 -0.000001 -45.018500
3.605012 16.205449 1.309513 4.119901 68.190294 21.627538 -12.045874 -0.154688 0.437369 -2.093865 8.941109 -51.835606 2.911201 5.010405 86.902248 2.793929 15.788382 6.321588 3.427000 -0.000000 -33.267000 9.337732 -1.656287 3.018288 5.492213 3.255881 -24.678194 2.529613 -1.516903 41.053185 -0.676290 6.640236 -28.295598 -0.997401 -0.000000 -47.448799
3.862613 16.361487 1.312652 4.660279 68.136492 22.387080 -11.887048 -0.214880 0.690101 -2.644070 8.271730 -52.145034 2.655093 4.764218 84.431086 2.875469 16.356000 6.849198 3.736100 0.000000 -33.275000 9.393017 -1.805802 3.086909 4.674593 2.969028 -22.434332 2.549054 -1.211813 37.034909 -0.393381 7.033177 -25.377532 -1.003400 -0.000000 -50.314800
4.129322 16.525181 1.314681 5.149145 68.092598 23.120992 -11.731362 -0.249598 0.968961 -3.147397 7.557174 -52.286522 2.390528 4.499486 81.645796 2.952492 16.916013 7.194148 4.018300 -0.000000 -33.132000 9.461053 -1.983556 3.191493 3.872657 2.765270 -20.177363 2.519125 -0.915677 32.830378 -0.102905 7.314024 -21.885365 -0.907200 0.000000 -53.537600
4.403924 16.694607 1.315294 5.564754 68.040814 23.802366 -11.580565 -0.259997 1.268671 -3.589346 6.809689 -52.255761 2.123444 4.219921 78.556894 3.020499 17.425781 7.370231 4.260501 -0.000000 -32.856000 9.542305 -2.192995 3.323477 3.097795 2.639291 -17.941150 2.440470 -0.644119 28.507977 0.174349 7.445156 -17.827939 -0.700400 0.000000 -56.954900
4.684929 16.867658 1.314349 5.901174 67.966302 24.415626 -11.435340 -0.247169 1.583397 -3.965472 6.044097 -52.048904 1.858295 3.928038 75.174230 3.074987 17.844066 7.410718 4.454400 -0.000000 -32.469900 9.637324 -2.434611 3.469971 2.354049 2.564321 -15.764055 2.320477 -0.412714 24.157119 0.417204 7.407945 -13.253882 -0.394400 -0.000001 -60.317901
4.970606 17.041945 1.311873 6.173965 67.859921 24.962571 -11.294894 -0.212209 1.907675 -4.283474 5.273449 -51.662560 1.598386 3.624574 71.505514 3.111704 18.136517 7.369653 4.600600 0.000000 -32.050699 9.748085 -2.704237 3.613405 1.636134 2.483924 -13.692434 2.172241 -0.234672 19.895209 0.608125 7.213467 -8.258444 -0.019100 -0.000000 -63.355700
5.259138 17.215044 1.308070 6.414514 67.719514 25.457431 -11.157425 -0.155978 2.237170 -4.560528 4.507887 -51.093072 1.346346 3.308797 67.556366 3.126277 18.276566 7.311606 4.706500 -0.000000 -31.683000 9.878342 -2.992107 3.732557 0.932290 2.309568 -11.782748 2.011875 -0.118194 15.872265 0.736091 6.909476 -2.997243 0.387400 -0.000000 -65.768600
5.548770 17.384572 1.303114 6.651582 67.551366 25.910003 -11.021562 -0.079377 2.568282 -4.813010 3.757324 -50.335737 1.104337 2.979756 63.331049 3.113993 18.245418 7.306032 4.784500 -0.000000 -31.450200 10.031697 -3.283372 3.805681 0.232918 1.937825 -10.092635 1.854104 -0.064105 12.258708 0.797529 6.570582 2.311075 0.795601 -0.000000 -67.273400
5.838080 17.548415 1.296899 6.881587 67.368563 26.301729 -10.888590 0.015939 2.897056 -5.042942 3.036941 -49.387730 0.873805 2.638070 58.834533 3.069590 18.029705 7.421702 4.847800 -0.000000 -31.439800 10.207015 -3.561123 3.817285 -0.457060 1.293299 -8.661557 1.708545 -0.064521 9.209114 0.794815 6.260049 7.402970 1.189300 0.000000 -67.641700
6.125986 17.704834 1.288950 7.058718 67.188692 26.579070 -10.763838 0.126978 3.217872 -5.231948 2.369838 -48.252803 0.654809 2.287209 54.076938 2.987523 17.620681 7.720811 4.906200 0.000000 -31.729300 10.394924 -3.811189 3.764435 -1.114606 0.374974 -7.489893 1.578104 -0.104811 6.820024 0.734059 5.977357 12.016198 1.546500 -0.000000 -66.784901
6.411822 17.852370 1.278693 7.122483 67.028729 26.682903 -10.655102 0.250373 3.523451 -5.354827 1.781392 -46.943161 0.444943 1.932908 49.079020 2.863097 17.017766 8.243015 4.961500 0.000001 -32.288800 10.580712 -4.025930 3.656938 -1.713185 -0.739039 -6.538697 1.460387 -0.169006 5.120985 0.624917 5.648540 15.929128 1.816400 -0.000001 -64.681100
6.695315 17.989639 1.265443 7.010001 66.904842 26.560226 -10.571890 0.381915 3.807890 -5.382610 1.292427 -45.486951 0.239943 1.582319 43.880524 2.694285 16.232155 9.013741 5.009800 -0.000000 -33.115400 10.746648 -4.206585 3.513106 -2.224951 -1.918133 -5.740909 1.350589 -0.244149 4.070456 0.478328 5.146432 19.023937 1.920500 0.000001 -61.713000
